<?xml version="1.0" encoding="UTF-8"?>
<svg width="113px" height="33px" viewBox="0 0 113 33" version="1.1" xmlns="http://www.w3.org/2000/svg" xmlns:xlink="http://www.w3.org/1999/xlink">
    <!-- Generator: Sketch 46.2 (44496) - http://www.bohemiancoding.com/sketch -->
    <title>Group 2</title>
    <desc>Created with Sketch.</desc>
    <defs>
        <linearGradient x1="87.8697525%" y1="84.8729475%" x2="14.4488306%" y2="12.7936382%" id="linearGradient-1">
            <stop stop-color="#3574B1" offset="0%"></stop>
            <stop stop-color="#00D3A5" offset="100%"></stop>
        </linearGradient>
    </defs>
    <g id="Page-1" stroke="none" stroke-width="1" fill="none" fill-rule="evenodd">
        <g id="Group-2">
            <path d="M71.1084479,12.5334975 L69.9827586,12.5334975 L69.9827586,10.8103448 L71.1084479,10.8103448 L71.1084479,9.32561576 C71.1084479,8.25631649 71.4014815,7.46880384 71.9875576,6.96305419 C72.5593391,6.49342951 73.2776289,6.25862069 74.1424484,6.25862069 L75.5897632,6.25862069 L75.5897632,8.39359606 L74.313982,8.39359606 C73.6421387,8.37192107 73.3205165,8.6825912 73.3491055,9.32561576 L73.3491055,10.8103448 L75.5897632,10.8103448 L75.5897632,12.5334975 L73.3491055,12.5334975 L73.3491055,22.0596059 L71.1084479,22.0596059 L71.1084479,12.5334975 Z M82.8989528,21.0625616 L82.8560694,21.0625616 C82.6487986,21.4454863 82.3271764,21.7272569 81.8911929,21.9078818 C81.4623568,22.0957316 80.8691424,22.1896552 80.1115318,22.1896552 C78.867907,22.1752052 77.9101873,21.8428604 77.238344,21.1926108 C76.5307644,20.5568113 76.1769799,19.7440115 76.1769799,18.7541872 C76.1769799,17.8077128 76.4843078,17.0238126 77.098973,16.4024631 C77.7136381,15.7666635 78.6141805,15.4415436 79.8006272,15.4270936 L82.8989528,15.4270936 L82.8989528,14.2458128 C82.9132474,13.2559885 82.1520746,12.7755335 80.6154118,12.8044335 C80.0579248,12.8044335 79.6183743,12.8622326 79.2967472,12.9778325 C78.9608256,13.1151074 78.6963806,13.3463038 78.5034043,13.6714286 L76.7451849,12.3167488 C77.59571,11.1896495 78.8500369,10.6405581 80.5082033,10.6694581 C81.909068,10.6550081 83.0275989,10.9223289 83.8638294,11.4714286 C84.7000598,12.0349782 85.125316,13.003113 85.1396105,14.3758621 L85.1396105,22.0596059 L82.8989528,22.0596059 L82.8989528,21.0625616 Z M82.8989528,17.291133 L80.2187403,17.291133 C78.9179374,17.320033 78.2746928,17.7715884 78.2889873,18.6458128 C78.2889873,19.0287375 78.4569456,19.3538574 78.7928673,19.6211823 C79.1144944,19.9174071 79.646958,20.0655172 80.3902739,20.0655172 C81.3265662,20.0799672 81.9876787,19.9679815 82.3736312,19.7295567 C82.7238474,19.4911318 82.8989528,18.9492653 82.8989528,18.1039409 L82.8989528,17.291133 Z M88.2355061,10.8103448 L90.4761638,10.8103448 L90.4761638,12.0024631 L90.5190472,12.0024631 C91.2552159,11.1137887 92.2200827,10.6694581 93.4136767,10.6694581 C94.3070853,10.6839081 95.086126,10.9729036 95.750822,11.5364532 L94.1212528,13.4980296 C93.649533,13.1223298 93.1599524,12.9344828 92.6524963,12.9344828 C92.0807148,12.9344828 91.5911342,13.1223298 91.1837399,13.4980296 C90.7263146,13.8665043 90.4904583,14.4625575 90.4761638,15.2862069 L90.4761638,22.0596059 L88.2355061,22.0596059 L88.2355061,10.8103448 Z M97.1099399,10.8103448 L99.3505975,10.8103448 L99.3505975,12.0024631 L99.3934809,12.0024631 C100.12965,11.1137887 101.09809,10.6694581 102.298831,10.6694581 C103.070736,10.6839081 103.692539,10.8175685 104.164259,11.0704433 C104.628832,11.3522182 105.054088,11.70985 105.44004,12.1433498 C106.312007,11.1463004 107.480568,10.6550081 108.945758,10.6694581 C109.867756,10.6694581 110.711121,10.9981905 111.475879,11.655665 C112.233489,12.3203646 112.626583,13.2957243 112.655172,14.5817734 L112.655172,22.0596059 L110.414515,22.0596059 L110.414515,15.362069 C110.414515,14.5745445 110.210821,13.9748789 109.803426,13.5630542 C109.396032,13.1440045 108.870716,12.9344828 108.227461,12.9344828 C107.584207,12.9344828 107.055317,13.1440045 106.640776,13.5630542 C106.219087,13.9748789 106.008245,14.5745445 106.008245,15.362069 L106.008245,22.0596059 L103.767588,22.0596059 L103.767588,15.362069 C103.767588,14.5745445 103.563894,13.9748789 103.156499,13.5630542 C102.741958,13.1440045 102.213068,12.9344828 101.569813,12.9344828 C100.926559,12.9344828 100.401243,13.1440045 99.9938485,13.5630542 C99.5650124,13.9748789 99.3505975,14.5745445 99.3505975,15.362069 L99.3505975,22.0596059 L97.1099399,22.0596059 L97.1099399,10.8103448 Z" id="accfarm" fill="#3574B1"></path>
            <path d="M45.4025896,21.0764501 L45.3597639,21.0764501 C45.1527718,21.4546563 44.8315819,21.7329548 44.3961848,21.9113539 C43.9679252,22.096889 43.3755085,22.1896552 42.6189166,22.1896552 C41.376964,22.1753832 40.4205321,21.8471338 39.7495922,21.2048969 C39.042964,20.5769319 38.6896552,19.7741479 38.6896552,18.7965206 C38.6896552,17.8617091 38.9965699,17.0874685 39.6104085,16.4737755 C40.2242472,15.8458105 41.1235787,15.5246969 42.30843,15.510425 L45.4025896,15.510425 L45.4025896,14.3437004 C45.4168649,13.3660732 44.6567157,12.8915386 43.1221191,12.9200825 C42.5653817,12.9200825 42.1264223,12.9771693 41.8052276,13.0913448 C41.4697577,13.2269281 41.2056682,13.4552756 41.0129515,13.776394 L39.2570962,12.4384072 C40.1064776,11.3251966 41.3591179,10.7828714 43.0150547,10.8114152 C44.4140358,10.7971433 45.5310626,11.0611701 46.3661687,11.6035034 C47.2012748,12.1601087 47.6259591,13.1163138 47.6402344,14.4721472 L47.6402344,22.0612084 L45.4025896,22.0612084 L45.4025896,21.0764501 Z M45.4025896,17.3514948 L42.725981,17.3514948 C41.4269271,17.3800387 40.7845475,17.8260298 40.7988228,18.6894816 C40.7988228,19.0676878 40.9665552,19.3888014 41.3020252,19.6528322 C41.6232198,19.9454067 42.1549674,20.0916918 42.8972839,20.0916918 C43.8323172,20.1059638 44.4925407,19.995358 44.8779743,19.7598711 C45.2277196,19.5243842 45.4025896,18.9891949 45.4025896,18.1542869 L45.4025896,17.3514948 Z M58.9116832,20.2629541 C58.4263224,20.8195594 57.8553182,21.2726865 57.1986536,21.6223488 C56.541989,21.986283 55.7818398,22.1753832 54.9181831,22.1896552 C53.6048539,22.1896552 52.4521393,21.743664 51.4600047,20.8516684 C50.4321819,19.9596727 49.9040031,18.5146614 49.8754524,16.516591 C49.9040031,14.4971128 50.4321819,13.0342619 51.4600047,12.1279943 C52.4521393,11.2359986 53.6048539,10.7971433 54.9181831,10.8114152 C55.7818398,10.8256872 56.541989,11.0040836 57.1986536,11.34661 C57.8553182,11.6962723 58.4263224,12.163671 58.9116832,12.7488202 L57.2628922,14.2152537 C56.6990172,13.4659773 55.9460055,13.0770731 55.0038346,13.0485292 C53.1052174,13.0199853 52.1416479,14.1759944 52.1130972,16.516591 C52.1416479,18.8429158 53.1052174,19.988221 55.0038346,19.9525412 C55.9460055,19.9382693 56.6990172,19.5529329 57.2628922,18.7965206 L58.9116832,20.2629541 Z M68.8448276,20.2629541 C68.3594668,20.8195594 67.7884627,21.2726865 67.1317981,21.6223488 C66.4751335,21.986283 65.7149842,22.1753832 64.8513275,22.1896552 C63.5379983,22.1896552 62.3852837,21.743664 61.3931492,20.8516684 C60.3653263,19.9596727 59.8371475,18.5146614 59.8085969,16.516591 C59.8371475,14.4971128 60.3653263,13.0342619 61.3931492,12.1279943 C62.3852837,11.2359986 63.5379983,10.7971433 64.8513275,10.8114152 C65.7149842,10.8256872 66.4751335,11.0040836 67.1317981,11.34661 C67.7884627,11.6962723 68.3594668,12.163671 68.8448276,12.7488202 L67.1960367,14.2152537 C66.6321616,13.4659773 65.8791499,13.0770731 64.936979,13.0485292 C63.0383618,13.0199853 62.0747923,14.1759944 62.0462417,16.516591 C62.0747923,18.8429158 63.0383618,19.988221 64.936979,19.9525412 C65.8791499,19.9382693 66.6321616,19.5529329 67.1960367,18.7965206 L68.8448276,20.2629541 Z" id="accfarm-copy" fill="#00D3A5"></path>
            <rect id="Rectangle-3" fill="url(#linearGradient-1)" x="0" y="0" width="33" height="33" rx="9"></rect>
            <path d="M19.2025862,22.9626904 L19.1454174,22.9626904 C18.8691003,23.4732688 18.4403387,23.8489717 17.8591198,24.0898105 C17.2874291,24.3402829 16.4966021,24.4655172 15.4866152,24.4655172 C13.8287122,24.4462501 12.5519555,24.0031133 11.6563067,23.1360935 C10.7130171,22.2883408 10.2413793,21.2045824 10.2413793,19.8847856 C10.2413793,18.6227901 10.6510848,17.5775652 11.4705082,16.7490796 C12.2899315,15.901327 13.490464,15.4678236 15.0721416,15.4485564 L19.2025862,15.4485564 L19.2025862,13.8734784 C19.2216426,12.5536816 18.2069068,11.9130599 16.1583485,11.9515941 C15.4151505,11.9515941 14.8291764,12.0286614 14.4004083,12.1827982 C13.952584,12.3658357 13.6000467,12.6741048 13.3427858,13.1076147 L10.9988657,11.3013325 C12.1327189,9.79849818 13.8048891,9.06635912 16.0154265,9.10489333 C17.8829494,9.08562622 19.374087,9.44206235 20.4888838,10.1742124 C21.6036807,10.9256296 22.1705988,12.2165063 22.1896552,14.0468815 L22.1896552,24.2921141 L19.2025862,24.2921141 L19.2025862,22.9626904 Z M19.2025862,17.9340008 L15.6295372,17.9340008 C13.8954088,17.972535 13.0378856,18.574623 13.0569419,19.740283 C13.0569419,20.2508613 13.2808508,20.6843647 13.7286751,21.0408062 C14.1574432,21.4357819 14.8672818,21.6332667 15.8582123,21.6332667 C17.1064037,21.6525338 17.987747,21.503216 18.5022686,21.1853087 C18.9691493,20.8674015 19.2025862,20.1448958 19.2025862,19.0177701 L19.2025862,17.9340008 Z" id="a" fill="#FFFFFF"></path>
        </g>
    </g>
</svg>